<svg width="40" height="25" viewBox="0 0 40 25" fill="none" xmlns="http://www.w3.org/2000/svg">
<path d="M0.256 24V7.792H1.968C2.37333 7.792 2.624 7.98933 2.72 8.384L2.928 10.048C3.52533 9.312 4.19733 8.70933 4.944 8.24C5.69067 7.77067 6.55467 7.536 7.536 7.536C8.624 7.536 9.504 7.84 10.176 8.448C10.8587 9.056 11.3493 9.87733 11.648 10.912C11.8827 10.3253 12.1813 9.81867 12.544 9.392C12.9173 8.96533 13.3333 8.61333 13.792 8.336C14.2507 8.05867 14.736 7.856 15.248 7.728C15.7707 7.6 16.2987 7.536 16.832 7.536C17.6853 7.536 18.4427 7.67467 19.104 7.952C19.776 8.21867 20.3413 8.61333 20.8 9.136C21.2693 9.65867 21.6267 10.304 21.872 11.072C22.1173 11.8293 22.24 12.6987 22.24 13.68V24H19.376V13.68C19.376 12.4107 19.0987 11.4507 18.544 10.8C17.9893 10.1387 17.1893 9.808 16.144 9.808C15.6747 9.808 15.2267 9.89333 14.8 10.064C14.384 10.224 14.016 10.464 13.696 10.784C13.376 11.104 13.12 11.5093 12.928 12C12.7467 12.48 12.656 13.04 12.656 13.68V24H9.792V13.68C9.792 12.3787 9.53067 11.408 9.008 10.768C8.48533 10.128 7.72267 9.808 6.72 9.808C6.016 9.808 5.36533 10 4.768 10.384C4.17067 10.7573 3.62133 11.2693 3.12 11.92V24H0.256Z" fill="#008080"/>
<path d="M37.1285 11.648C36.5952 10.9333 36.0192 10.4373 35.4005 10.16C34.7818 9.872 34.0885 9.728 33.3205 9.728C31.8165 9.728 30.6592 10.2667 29.8485 11.344C29.0378 12.4213 28.6325 13.9573 28.6325 15.952C28.6325 17.008 28.7232 17.9147 28.9045 18.672C29.0858 19.4187 29.3525 20.0373 29.7045 20.528C30.0565 21.008 30.4885 21.36 31.0005 21.584C31.5125 21.808 32.0938 21.92 32.7445 21.92C33.6832 21.92 34.4992 21.7067 35.1925 21.28C35.8965 20.8533 36.5418 20.2507 37.1285 19.472V11.648ZM39.9765 0.431999V24H38.2805C37.8752 24 37.6192 23.8027 37.5125 23.408L37.2565 21.44C36.5632 22.272 35.7738 22.944 34.8885 23.456C34.0032 23.968 32.9792 24.224 31.8165 24.224C30.8885 24.224 30.0458 24.048 29.2885 23.696C28.5312 23.3333 27.8858 22.8053 27.3525 22.112C26.8192 21.4187 26.4085 20.5547 26.1205 19.52C25.8325 18.4853 25.6885 17.296 25.6885 15.952C25.6885 14.7573 25.8485 13.648 26.1685 12.624C26.4885 11.5893 26.9472 10.6933 27.5445 9.936C28.1418 9.17867 28.8725 8.58667 29.7365 8.16C30.6112 7.72267 31.5925 7.504 32.6805 7.504C33.6725 7.504 34.5205 7.67467 35.2245 8.016C35.9392 8.34667 36.5738 8.81067 37.1285 9.408V0.431999H39.9765Z" fill="#FF6F61"/>
</svg>
